<mxfile host="app.diagrams.net" agent="Mozilla/5.0 (Windows NT 10.0; Win64; x64) AppleWebKit/537.36 (KHTML, like Gecko) Chrome/136.0.0.0 Safari/537.36 Edg/136.0.0.0" version="27.0.9">
  <diagram name="Страница — 1" id="4uVkOv9t7RNwJvDlGnGy">
    <mxGraphModel dx="978" dy="542" grid="1" gridSize="10" guides="1" tooltips="1" connect="1" arrows="1" fold="1" page="1" pageScale="1" pageWidth="827" pageHeight="1169" math="0" shadow="0">
      <root>
        <mxCell id="0" />
        <mxCell id="1" parent="0" />
        <mxCell id="mU57x3cRQvSPEYh_6mAs-1" value="Система" style="html=1;dropTarget=0;whiteSpace=wrap;" vertex="1" parent="1">
          <mxGeometry x="330" y="290" width="140" height="70" as="geometry" />
        </mxCell>
        <mxCell id="mU57x3cRQvSPEYh_6mAs-2" value="" style="shape=module;jettyWidth=8;jettyHeight=4;" vertex="1" parent="mU57x3cRQvSPEYh_6mAs-1">
          <mxGeometry x="1" width="20" height="20" relative="1" as="geometry">
            <mxPoint x="-27" y="7" as="offset" />
          </mxGeometry>
        </mxCell>
        <mxCell id="mU57x3cRQvSPEYh_6mAs-3" value="Пользователь" style="html=1;dropTarget=0;whiteSpace=wrap;" vertex="1" parent="1">
          <mxGeometry x="630" y="290" width="140" height="70" as="geometry" />
        </mxCell>
        <mxCell id="mU57x3cRQvSPEYh_6mAs-4" value="" style="shape=module;jettyWidth=8;jettyHeight=4;" vertex="1" parent="mU57x3cRQvSPEYh_6mAs-3">
          <mxGeometry x="1" width="20" height="20" relative="1" as="geometry">
            <mxPoint x="-27" y="7" as="offset" />
          </mxGeometry>
        </mxCell>
        <mxCell id="mU57x3cRQvSPEYh_6mAs-5" value="Аккаунты" style="html=1;dropTarget=0;whiteSpace=wrap;" vertex="1" parent="1">
          <mxGeometry x="50" y="290" width="140" height="70" as="geometry" />
        </mxCell>
        <mxCell id="mU57x3cRQvSPEYh_6mAs-6" value="" style="shape=module;jettyWidth=8;jettyHeight=4;" vertex="1" parent="mU57x3cRQvSPEYh_6mAs-5">
          <mxGeometry x="1" width="20" height="20" relative="1" as="geometry">
            <mxPoint x="-27" y="7" as="offset" />
          </mxGeometry>
        </mxCell>
        <mxCell id="mU57x3cRQvSPEYh_6mAs-9" value="" style="rounded=0;orthogonalLoop=1;jettySize=auto;html=1;endArrow=halfCircle;endFill=0;endSize=6;strokeWidth=1;sketch=0;exitX=0;exitY=0.5;exitDx=0;exitDy=0;" edge="1" target="mU57x3cRQvSPEYh_6mAs-11" parent="1" source="mU57x3cRQvSPEYh_6mAs-1">
          <mxGeometry relative="1" as="geometry">
            <mxPoint x="280" y="325" as="sourcePoint" />
          </mxGeometry>
        </mxCell>
        <mxCell id="mU57x3cRQvSPEYh_6mAs-10" value="" style="rounded=0;orthogonalLoop=1;jettySize=auto;html=1;endArrow=oval;endFill=0;sketch=0;sourcePerimeterSpacing=0;targetPerimeterSpacing=0;endSize=10;exitX=1;exitY=0.5;exitDx=0;exitDy=0;" edge="1" target="mU57x3cRQvSPEYh_6mAs-11" parent="1" source="mU57x3cRQvSPEYh_6mAs-5">
          <mxGeometry relative="1" as="geometry">
            <mxPoint x="240" y="325" as="sourcePoint" />
          </mxGeometry>
        </mxCell>
        <mxCell id="mU57x3cRQvSPEYh_6mAs-11" value="" style="ellipse;whiteSpace=wrap;html=1;align=center;aspect=fixed;fillColor=none;strokeColor=none;resizable=0;perimeter=centerPerimeter;rotatable=0;allowArrows=0;points=[];outlineConnect=1;" vertex="1" parent="1">
          <mxGeometry x="255" y="320" width="10" height="10" as="geometry" />
        </mxCell>
        <mxCell id="mU57x3cRQvSPEYh_6mAs-12" value="Данные существующих&amp;nbsp;&lt;div&gt;аккаунтов&lt;/div&gt;" style="text;html=1;align=center;verticalAlign=middle;resizable=0;points=[];autosize=1;strokeColor=none;fillColor=none;" vertex="1" parent="1">
          <mxGeometry x="180" y="280" width="160" height="40" as="geometry" />
        </mxCell>
        <mxCell id="mU57x3cRQvSPEYh_6mAs-13" value="Введенные пользователем&lt;div&gt;данные&lt;/div&gt;" style="text;html=1;align=center;verticalAlign=middle;resizable=0;points=[];autosize=1;strokeColor=none;fillColor=none;" vertex="1" parent="1">
          <mxGeometry x="465" y="280" width="170" height="40" as="geometry" />
        </mxCell>
        <mxCell id="mU57x3cRQvSPEYh_6mAs-14" value="" style="rounded=0;orthogonalLoop=1;jettySize=auto;html=1;endArrow=halfCircle;endFill=0;endSize=6;strokeWidth=1;sketch=0;exitX=1;exitY=0.5;exitDx=0;exitDy=0;" edge="1" parent="1" source="mU57x3cRQvSPEYh_6mAs-1">
          <mxGeometry relative="1" as="geometry">
            <mxPoint x="660" y="450" as="sourcePoint" />
            <mxPoint x="550" y="325" as="targetPoint" />
          </mxGeometry>
        </mxCell>
        <mxCell id="mU57x3cRQvSPEYh_6mAs-15" value="" style="rounded=0;orthogonalLoop=1;jettySize=auto;html=1;endArrow=oval;endFill=0;sketch=0;sourcePerimeterSpacing=0;targetPerimeterSpacing=0;endSize=10;exitX=0;exitY=0.5;exitDx=0;exitDy=0;" edge="1" parent="1" source="mU57x3cRQvSPEYh_6mAs-3">
          <mxGeometry relative="1" as="geometry">
            <mxPoint x="520" y="450" as="sourcePoint" />
            <mxPoint x="550" y="325" as="targetPoint" />
          </mxGeometry>
        </mxCell>
      </root>
    </mxGraphModel>
  </diagram>
</mxfile>
